<svg xmlns="http://www.w3.org/2000/svg" width="1200" height="300" viewBox="0 0 1200 300" role="img" aria-label="mosaic-pixel-matrixator">
  <defs>
    <linearGradient id="bg" x1="0" y1="0" x2="1" y2="1">
      <stop offset="0" stop-color="#0d1117"/>
      <stop offset="1" stop-color="#2f7437"/>
    </linearGradient>
    <linearGradient id="accentbar" x1="0" y1="0" x2="0" y2="1">
      <stop offset="0" stop-color="#56d364"/>
      <stop offset="1" stop-color="#2f7437"/>
    </linearGradient>
  </defs>
  <rect width="1200" height="300" fill="url(#bg)"/>
  <rect width="1200" height="300" fill="#0d1117" fill-opacity="0.55"/>
  <rect x="0" y="0" width="14" height="300" fill="url(#accentbar)"/>
  <circle cx="1080" cy="80" r="180" fill="#56d364" fill-opacity="0.06"/>
  <circle cx="1140" cy="240" r="120" fill="#56d364" fill-opacity="0.05"/>
  <text x="60" y="96" font-family="Segoe UI,Helvetica,Arial,sans-serif" font-size="56" font-weight="700" fill="#f0f6fc">mosaic-pixel-matrixator</text>
  <text x="60" y="152" font-family="Segoe UI,Helvetica,Arial,sans-serif" font-size="24" fill="#8b949e">Transforms images into ceramic tile mosaics using color</text><text x="60" y="186" font-family="Segoe UI,Helvetica,Arial,sans-serif" font-size="24" fill="#8b949e">quantization and CMYK paint mixing instructions</text>
  <g><rect x="60" y="232" rx="13" ry="13" width="76" height="30" fill="#161b22" stroke="#56d364" stroke-opacity="0.45"/><text x="98" y="252" text-anchor="middle" font-family="SFMono-Regular,Consolas,Liberation Mono,Menlo,monospace" font-size="14" fill="#c9d1d9">Python</text></g><g><rect x="148" y="232" rx="13" ry="13" width="76" height="30" fill="#161b22" stroke="#56d364" stroke-opacity="0.45"/><text x="186" y="252" text-anchor="middle" font-family="SFMono-Regular,Consolas,Liberation Mono,Menlo,monospace" font-size="14" fill="#c9d1d9">Pillow</text></g><g><rect x="236" y="232" rx="13" ry="13" width="67" height="30" fill="#161b22" stroke="#56d364" stroke-opacity="0.45"/><text x="270" y="252" text-anchor="middle" font-family="SFMono-Regular,Consolas,Liberation Mono,Menlo,monospace" font-size="14" fill="#c9d1d9">NumPy</text></g><g><rect x="315" y="232" rx="13" ry="13" width="58" height="30" fill="#161b22" stroke="#56d364" stroke-opacity="0.45"/><text x="344" y="252" text-anchor="middle" font-family="SFMono-Regular,Consolas,Liberation Mono,Menlo,monospace" font-size="14" fill="#c9d1d9">CMYK</text></g>
</svg>